<?xml version="1.0" standalone="no"?>
<!DOCTYPE svg PUBLIC "-//W3C//DTD SVG 20010904//EN"
 "http://www.w3.org/TR/2001/REC-SVG-20010904/DTD/svg10.dtd">
<svg version="1.0" xmlns="http://www.w3.org/2000/svg"
 width="1000.000000pt" height="1000.000000pt" viewBox="0 0 1000.000000 1000.000000"
 preserveAspectRatio="xMidYMid meet">
<metadata>
Created by potrace 1.14, written by Peter Selinger 2001-2017
</metadata>
<g transform="translate(0.000000,1000.000000) scale(0.100000,-0.100000)"
fill="#000000" stroke="none">
<path d="M4518 9835 c-2 -1 -77 -6 -168 -10 -91 -3 -177 -8 -192 -10 -14 -2
-68 -6 -120 -9 -51 -4 -149 -13 -218 -22 -69 -8 -138 -17 -155 -18 -41 -5
-136 -18 -160 -22 -11 -2 -47 -9 -80 -14 -79 -13 -282 -54 -365 -75 -36 -9
-74 -18 -84 -20 -11 -3 -40 -11 -65 -19 -25 -7 -73 -21 -106 -31 -103 -29
-335 -113 -349 -126 -6 -5 -16 -9 -23 -9 -19 0 -275 -129 -370 -186 -68 -41
-239 -158 -253 -174 -3 -3 -27 -23 -55 -45 -27 -22 -95 -85 -150 -140 -215
-215 -371 -452 -508 -775 -54 -126 -130 -372 -162 -520 -2 -8 -8 -35 -14 -60
-14 -61 -38 -198 -46 -257 -2 -13 -6 -40 -9 -60 -11 -70 -17 -110 -20 -144 -2
-19 -6 -59 -10 -89 -10 -90 -23 -241 -31 -370 -28 -436 -28 -1911 0 -2320 16
-229 16 -235 31 -385 4 -38 8 -83 9 -100 8 -79 32 -277 41 -330 3 -16 7 -46
10 -65 2 -19 13 -86 24 -148 136 -785 374 -1389 713 -1812 86 -108 276 -294
388 -381 52 -41 139 -110 192 -155 275 -230 562 -373 982 -490 57 -16 319 -70
380 -78 22 -3 74 -11 115 -16 41 -6 95 -13 120 -15 25 -3 63 -7 85 -10 22 -2
78 -7 125 -11 47 -3 103 -7 125 -9 312 -27 1433 -27 1755 0 25 2 76 7 113 10
38 3 87 8 110 10 23 3 65 8 92 11 28 3 70 7 95 10 25 3 115 16 200 30 744 118
1306 340 1725 682 143 117 200 176 384 397 61 74 198 304 257 433 83 180 190
491 210 611 3 14 9 40 14 56 10 34 45 218 64 340 2 17 8 50 12 75 4 25 8 56 9
70 1 14 5 43 8 65 5 35 12 103 22 215 2 19 6 82 10 140 4 58 9 123 10 145 28
341 28 2412 0 2800 -2 28 -6 93 -10 146 -3 52 -8 109 -10 125 -2 16 -6 56 -9
89 -10 90 -16 146 -22 185 -2 19 -7 52 -9 72 -5 39 -27 166 -44 253 -78 401
-217 772 -393 1049 -96 152 -185 263 -308 386 -115 116 -132 131 -235 209 -38
29 -84 65 -100 80 -246 216 -479 360 -781 484 -221 92 -544 188 -742 222 -18
3 -63 12 -100 20 -38 7 -90 17 -118 21 -27 3 -58 8 -69 10 -42 8 -234 32 -310
39 -33 3 -71 8 -85 10 -14 2 -74 7 -135 10 -60 4 -126 9 -145 12 -38 5 -1087
13 -1092 8z"/>
</g>
</svg>
